<svg width="22" height="19" viewBox="0 0 22 19" fill="none" xmlns="http://www.w3.org/2000/svg">
<path d="M21.0827 9.39532C20.2588 7.65954 19.2783 6.24391 18.1413 5.14844L16.9488 6.34094C17.9212 7.27024 18.7683 8.48595 19.5007 10C17.5507 14.0359 14.7827 15.9531 10.9999 15.9531C9.86443 15.9531 8.81857 15.7783 7.86232 15.4286L6.57021 16.7207C7.89833 17.334 9.3749 17.6406 10.9999 17.6406C15.5046 17.6406 18.8655 15.2945 21.0827 10.6024C21.1719 10.4136 21.2181 10.2075 21.2181 9.99884C21.2181 9.79014 21.1719 9.58403 21.0827 9.39532ZM19.5928 1.88032L18.5937 0.880003C18.5762 0.86257 18.5556 0.848741 18.5328 0.839305C18.51 0.829869 18.4856 0.825012 18.461 0.825012C18.4364 0.825012 18.412 0.829869 18.3892 0.839305C18.3664 0.848741 18.3458 0.86257 18.3283 0.880003L15.765 3.44219C14.3517 2.72032 12.7633 2.35938 10.9999 2.35938C6.49521 2.35938 3.13427 4.70547 0.917079 9.39767C0.827959 9.58638 0.781738 9.79248 0.781738 10.0012C0.781738 10.2099 0.827959 10.416 0.917079 10.6047C1.80286 12.4703 2.86927 13.9657 4.1163 15.0909L1.63614 17.5703C1.60101 17.6055 1.58127 17.6532 1.58127 17.7029C1.58127 17.7526 1.60101 17.8002 1.63614 17.8354L2.63669 18.836C2.67185 18.8711 2.71952 18.8908 2.76923 18.8908C2.81894 18.8908 2.86661 18.8711 2.90177 18.836L19.5928 2.14563C19.6102 2.12822 19.6241 2.10754 19.6335 2.08477C19.6429 2.06201 19.6478 2.03761 19.6478 2.01297C19.6478 1.98833 19.6429 1.96393 19.6335 1.94117C19.6241 1.91841 19.6102 1.89773 19.5928 1.88032ZM2.49911 10C4.45146 5.96407 7.21943 4.04688 10.9999 4.04688C12.2782 4.04688 13.4404 4.26626 14.4949 4.71227L12.8472 6.35993C12.0669 5.94359 11.1735 5.78908 10.2987 5.91918C9.42385 6.04928 8.61402 6.4571 7.98863 7.08249C7.36324 7.70788 6.95542 8.51771 6.82532 9.39252C6.69522 10.2673 6.84973 11.1608 7.26607 11.9411L5.31091 13.8963C4.2288 12.9412 3.29599 11.6472 2.49911 10ZM8.28115 10C8.28156 9.58672 8.37945 9.17936 8.56688 8.81102C8.7543 8.44267 9.02597 8.12373 9.35981 7.88011C9.69366 7.63648 10.0803 7.47504 10.4882 7.4089C10.8962 7.34276 11.314 7.37379 11.7077 7.49946L8.4056 10.8016C8.32283 10.5424 8.28085 10.272 8.28115 10Z" fill="#909BA9"/>
</svg>
