<svg width="24" height="24" viewBox="0 0 24 24" fill="none" xmlns="http://www.w3.org/2000/svg">
<path d="M11.9062 14.625C12.6023 14.625 13.27 14.3485 13.7623 13.8562C14.2546 13.3639 14.5312 12.6962 14.5312 12C14.5312 11.9231 14.5276 11.847 14.5211 11.7717L11.6779 14.6149C11.7531 14.6215 11.829 14.625 11.9062 14.625ZM20.5949 3.88032L19.5937 2.88001C19.5585 2.84487 19.5108 2.82513 19.4611 2.82513C19.4114 2.82513 19.3637 2.84487 19.3286 2.88001L16.7664 5.4429C15.353 4.72056 13.7641 4.35938 11.9999 4.35938C7.49521 4.35938 4.13427 6.70548 1.91708 11.3977C1.82796 11.5864 1.78174 11.7925 1.78174 12.0012C1.78174 12.2099 1.82796 12.416 1.91708 12.6047C2.80302 14.4708 3.86982 15.9665 5.11747 17.0918L2.63802 19.5703C2.60288 19.6055 2.58314 19.6532 2.58314 19.7029C2.58314 19.7526 2.60288 19.8002 2.63802 19.8354L3.63856 20.836C3.67372 20.8711 3.7214 20.8908 3.7711 20.8908C3.82081 20.8908 3.86848 20.8711 3.90364 20.836L20.5949 4.14563C20.6123 4.12822 20.6262 4.10754 20.6356 4.08478C20.645 4.06202 20.6499 4.03762 20.6499 4.01298C20.6499 3.98834 20.645 3.96394 20.6356 3.94118C20.6262 3.91841 20.6123 3.89773 20.5949 3.88032ZM7.78115 12C7.78108 11.2875 7.96556 10.5872 8.31662 9.96717C8.66767 9.34717 9.17333 8.82868 9.78434 8.46219C10.3953 8.0957 11.0908 7.89372 11.8031 7.87592C12.5154 7.85813 13.2201 8.02512 13.8487 8.36064L12.7091 9.50017C12.2496 9.35302 11.7583 9.3353 11.2894 9.44895C10.8204 9.5626 10.3918 9.80323 10.0506 10.1444C9.70937 10.4857 9.46873 10.9143 9.35508 11.3832C9.24143 11.8522 9.25915 12.3434 9.4063 12.803L8.26677 13.9425C7.94699 13.345 7.78015 12.6777 7.78115 12V12Z" fill="#909BA9"/>
<path d="M22.083 11.3953C21.258 9.65779 20.2761 8.24099 19.1372 7.1449L15.7589 10.5234C16.0437 11.2678 16.1068 12.0788 15.9406 12.8583C15.7745 13.6378 15.3862 14.3525 14.8226 14.9161C14.259 15.4797 13.5443 15.868 12.7648 16.0342C11.9853 16.2003 11.1743 16.1372 10.4299 15.8524L7.56445 18.7179C8.89383 19.333 10.3724 19.6406 12.0002 19.6406C16.5049 19.6406 19.8659 17.2945 22.083 12.6023C22.1722 12.4136 22.2184 12.2075 22.2184 11.9988C22.2184 11.7901 22.1722 11.584 22.083 11.3953Z" fill="#909BA9"/>
</svg>
